<svg width="38" height="39" viewBox="0 0 38 39" fill="none" xmlns="http://www.w3.org/2000/svg">
<path d="M0.432281 24.9304L8.01679 10.8609H23.1867L30.7716 24.9304L23.1867 39H8.01679L0.432281 24.9304Z" fill="#00549E"/>
<path fill-rule="evenodd" clip-rule="evenodd" d="M15.6673 3.23923C16.2455 2.33416 17.6244 3.05176e-05 18.9587 3.05176e-05C20.6044 3.05176e-05 20.9603 4.09667 21.0047 6.66897L15.6673 3.23923Z" fill="#FDBE2F"/>
<path fill-rule="evenodd" clip-rule="evenodd" d="M12.9541 8.43148L15.4004 8.1933C17.5354 4.81119 18.2915 5.00173 18.6029 8.47911L21.0492 9.0031C21.0344 8.22507 21.0196 7.447 21.0047 6.66897C20.0262 5.95444 19.4925 5.33518 18.6029 4.57302C17.9802 4.00139 16.8237 3.38213 15.6673 3.23923C14.6443 5.00173 13.9771 6.19262 12.9541 8.43148Z" fill="white"/>
<path fill-rule="evenodd" clip-rule="evenodd" d="M32.08 12.1471C34.7042 11.766 37.2395 12.0518 37.2395 13.8143C37.2395 15.8626 33.9036 18.816 33.2809 19.4829C32.4803 17.5299 32.8361 14.4812 32.08 12.1471Z" fill="#FDBE2F"/>
<path fill-rule="evenodd" clip-rule="evenodd" d="M27.0984 13.3379L28.7441 15.1481C32.1689 14.9099 33.3254 15.7197 30.7456 18.2444L31.991 20.6738C32.5692 20.1498 32.7916 19.9592 33.2809 19.4829C32.7472 17.8633 33.7257 17.7204 33.7257 15.6244C33.7257 14.7194 33.5922 13.719 32.08 12.147C30.7901 12.29 29.2778 12.5758 27.0984 13.3379Z" fill="white"/>
</svg>
